HIERARCHY
ROOT root
{
	OFFSET	0	13.1	24.9
	CHANNELS 6  Xposition Yposition Zposition Xrotation Yrotation Zrotation
	JOINT spine_1
	{
		OFFSET	0	9.99999	0
		CHANNELS 3  Xrotation Yrotation Zrotation
		JOINT spine_2
		{
			OFFSET	0	112	-10
			CHANNELS 3  Xrotation Yrotation Zrotation
			JOINT spine_3
			{
				OFFSET	0	206.5	19.3
				CHANNELS 3  Xrotation Yrotation Zrotation
				JOINT spine_4
				{
					OFFSET	0	110.4	14.6
					CHANNELS 3  Xrotation Yrotation Zrotation
					JOINT neck_1
					{
						OFFSET	0	71.8	-50.3
						CHANNELS 3  Xrotation Yrotation Zrotation
						JOINT neck_2
						{
							OFFSET	0	86.2	-25.8
							CHANNELS 3  Xrotation Yrotation Zrotation
							JOINT head_ee
							{
								OFFSET	0	179.8	-8.7
								CHANNELS 3  Xrotation Yrotation Zrotation
								End Site
								{
									OFFSET	1	0	0
								}
							}
						}
					}
					JOINT left_clavicle
					{
						OFFSET	-43.2	22.4	-70.8
						CHANNELS 3  Xrotation Yrotation Zrotation
						JOINT left_shoulder
						{
							OFFSET	-93.9	-5.79999	48.7
							CHANNELS 3  Xrotation Yrotation Zrotation
							JOINT left_elbow
							{
								OFFSET	-291.4	-30.8	15.2
								CHANNELS 3  Xrotation Yrotation Zrotation
								JOINT left_lowarm_twist
								{
									OFFSET	-110.7	-3.89999	13.6
									CHANNELS 3  Xrotation Yrotation Zrotation
									JOINT left_hand
									{
										OFFSET	-110.7	-3.89999	13.6
										CHANNELS 3  Xrotation Yrotation Zrotation
										JOINT left_ee
										{
											OFFSET	-80.8	-5.10001	12.1
											CHANNELS 3  Xrotation Yrotation Zrotation
											End Site
											{
												OFFSET	1	0	0
											}
										}
									}
								}
							}
						}
					}
					JOINT right_clavicle
					{
						OFFSET	43.2	22.4	-70.8
						CHANNELS 3  Xrotation Yrotation Zrotation
						JOINT right_shoulder
						{
							OFFSET	93.9	-5.79999	48.7
							CHANNELS 3  Xrotation Yrotation Zrotation
							JOINT right_elbow
							{
								OFFSET	291.4	-30.8	15.2
								CHANNELS 3  Xrotation Yrotation Zrotation
								JOINT right_lowarm_twist
								{
									OFFSET	110.7	-3.89999	13.6
									CHANNELS 3  Xrotation Yrotation Zrotation
									JOINT right_hand
									{
										OFFSET	110.7	-3.89999	13.6
										CHANNELS 3  Xrotation Yrotation Zrotation
										JOINT right_ee
										{
											OFFSET	80.8	-5.10001	12.1
											CHANNELS 3  Xrotation Yrotation Zrotation
											End Site
											{
												OFFSET	1	0	0
											}
										}
									}
								}
							}
						}
					}
				}
			}
		}
	}
	JOINT left_hip
	{
		OFFSET	-82.8	-127.5	0.300001
		CHANNELS 3  Xrotation Yrotation Zrotation
		JOINT left_knee
		{
			OFFSET	-28.2	-396.7	2.2
			CHANNELS 3  Xrotation Yrotation Zrotation
			JOINT left_ankle
			{
				OFFSET	-11.7	-411.3	35.4
				CHANNELS 3  Xrotation Yrotation Zrotation
				JOINT left_toes
				{
					OFFSET	0	-60	-88.6
					CHANNELS 3  Xrotation Yrotation Zrotation
					JOINT left_foot_ee
					{
						OFFSET	-22.5	-16.5	-42.2
						CHANNELS 3  Xrotation Yrotation Zrotation
						End Site
						{
							OFFSET	1	0	0
						}
					}
				}
			}
		}
	}
	JOINT right_hip
	{
		OFFSET	82.8	-127.5	0.300001
		CHANNELS 3  Xrotation Yrotation Zrotation
		JOINT right_knee
		{
			OFFSET	28.2	-396.7	2.2
			CHANNELS 3  Xrotation Yrotation Zrotation
			JOINT right_ankle
			{
				OFFSET	11.7	-411.3	35.4
				CHANNELS 3  Xrotation Yrotation Zrotation
				JOINT right_toes
				{
					OFFSET	0	-60	-88.6
					CHANNELS 3  Xrotation Yrotation Zrotation
					JOINT right_foot_ee
					{
						OFFSET	22.5	-16.5	-42.2
						CHANNELS 3  Xrotation Yrotation Zrotation
						End Site
						{
							OFFSET	1	0	0
						}
					}
				}
			}
		}
	}
}
MOTION
Frames: 12
Frame Time: 0.02
3478.77 719.956 -1488.4 -95.5685 82.4103 99.4655 2.90202 -0.453755 -1.17324 2.90271 -0.378184 -1.19973 2.91049 -0.181082 -1.24482 2.90853 -0.375391 -1.20061 -7.24475 4.46959 4.98037 -7.18079 4.73069 5.88324 -0.0 0.0 -0.0 2.21577 -1.81972 4.12019 -48.5868 -13.1358 77.7792 0.831637 -22.39 0.164596 18.7189 0.275469 -2.36469 0.549617 14.4697 9.38492 -0.0 0.0 -0.0 4.01652 12.8609 -6.92341 11.5414 18.4594 -58.1694 2.38922 49.7976 -1.1091 24.5387 -0.202627 3.10418 3.07304 28.3817 -7.60891 0.0 0.0 0.0 31.1935 -32.305 -1.8104 7.99893 -0.410982 -1.15708 -20.6846 22.6507 3.20485 16.9942 -0.0 -0.0 -0.0 0.0 -0.0 -18.182 -31.1826 -9.68945 5.15694 0.246448 0.752535 15.4057 30.7761 2.73124 -1.27136 0.0 0.0 0.0 0.0 0.0 
3458.51 721.244 -1482.15 -92.7029 81.6579 95.2726 3.19712 -0.345224 -1.27002 3.19798 -0.263717 -1.28941 3.20363 -0.0604237 -1.31471 3.20132 -0.267282 -1.28868 -7.10946 6.42101 6.87012 -6.988 6.97858 8.15607 -0.0 0.0 -0.0 2.77945 -1.72752 5.23122 -48.5424 -13.1228 77.8379 0.883539 -23.6377 0.184888 19.4433 0.270502 -2.45708 0.539856 14.9154 9.48936 -0.0 0.0 -0.0 4.11596 13.1033 -7.11416 11.8481 18.6567 -58.3166 2.39704 49.8897 -1.11508 24.6127 -0.201217 3.11354 2.94496 28.4031 -6.78057 0.0 0.0 0.0 31.0482 -32.2155 -2.07669 6.29634 -0.309993 -0.915681 -24.9893 22.5413 3.8721 15.9211 -0.0 -0.0 -0.0 0.0 -0.0 -17.612 -30.7366 -7.73051 5.2297 0.250408 0.76299 15.4856 30.1158 2.71981 -0.861121 0.0 0.0 0.0 0.0 0.0 
3446.5 714.628 -1481.25 -91.678 81.6968 94.3999 3.24596 -0.280615 -1.34863 3.24695 -0.194237 -1.36375 3.25122 0.0186268 -1.37739 3.24863 -0.199119 -1.36305 -7.0728 7.80705 8.18377 -6.90052 8.59983 9.73821 -0.0 0.0 -0.0 2.66957 -1.94414 4.99969 -48.9768 -13.0879 77.5775 0.912622 -24.3267 0.196709 19.9515 0.266319 -2.52186 0.532357 15.2274 9.55812 -0.0 0.0 -0.0 4.18339 13.2476 -7.24528 12.0191 18.8634 -58.1098 2.39956 49.9195 -1.11701 24.7502 -0.198565 3.1309 2.83217 28.34 -6.09448 0.0 0.0 0.0 31.0499 -32.2192 -2.03209 5.55944 -0.268524 -0.810309 -27.4845 22.3699 4.25374 15.0231 -0.0 -0.0 -0.0 0.0 -0.0 -17.2893 -30.362 -7.15919 5.20638 0.249138 0.75964 15.5498 29.6971 2.71503 -0.56186 0.0 0.0 0.0 0.0 0.0 
3431.84 719.772 -1478.2 -91.0027 81.9285 93.5989 3.17906 -0.219981 -1.28859 3.17997 -0.137546 -1.29997 3.18278 0.0663659 -1.30554 3.18043 -0.140635 -1.29964 -7.00075 9.17265 8.88367 -6.79908 10.6207 10.7001 -0.0 0.0 -0.0 2.85534 -2.09546 5.35321 -48.3261 -13.1086 77.3886 0.944467 -25.0727 0.210016 20.4581 0.261578 -2.58639 0.539509 15.6183 9.74776 -0.0 0.0 -0.0 4.21676 13.1863 -7.32047 11.7901 18.8771 -57.9415 2.38012 49.6898 -1.10216 24.8989 -0.195654 3.14967 2.65858 27.3417 -5.49588 0.0 0.0 0.0 30.4381 -32.2064 -1.98586 2.56246 -0.113972 -0.376645 -25.1441 21.5536 3.88004 13.3549 -0.0 -0.0 -0.0 0.0 -0.0 -17.1381 -30.4154 -6.8876 4.47251 0.209845 0.653951 15.6806 27.8195 2.67131 -0.109684 0.0 0.0 0.0 0.0 0.0 
3407.88 717.865 -1476.79 -90.7467 82.3523 93.6421 3.09395 -0.213214 -1.43869 3.09509 -0.121244 -1.44934 3.09778 0.107868 -1.45039 3.09487 -0.122523 -1.44923 -6.96891 10.1571 9.35805 -6.74584 12.1035 11.3622 -0.0 0.0 -0.0 2.97094 -2.46832 5.55381 -47.8523 -13.1072 76.9235 0.966385 -25.5808 0.219392 20.813 0.257916 -2.63158 0.544487 15.8959 9.88132 -0.0 0.0 -0.0 4.3449 13.1137 -7.59657 11.6519 18.8746 -57.8167 2.36063 49.4574 -1.08732 25.0026 -0.193592 3.16276 2.53515 26.5966 -5.0782 0.0 0.0 0.0 30.1706 -32.2075 -1.71724 0.847193 -0.0358118 -0.125072 -23.5417 20.8328 3.62268 12.156 -0.0 -0.0 -0.0 0.0 -0.0 -17.4154 -30.4485 -6.58317 3.43087 0.156412 0.50311 15.7224 26.4241 2.63342 0.203638 -0.0 -0.0 0.0 0.0 0.0 
3394.18 718.754 -1476.89 -90.4498 81.411 93.5185 3.13975 -0.208711 -1.52569 3.14104 -0.111216 -1.53587 3.14358 0.130142 -1.53438 3.14032 -0.113789 -1.53568 -6.87153 10.817 9.34725 -6.6493 13.32 11.4735 -0.0 0.0 -0.0 3.07892 -2.74874 5.74708 -47.4465 -13.1524 76.6874 0.982768 -25.9579 0.226515 21.1025 0.254723 -2.66842 0.556375 16.0844 10.025 -0.0 0.0 -0.0 4.43127 13.0257 -7.78555 11.5242 18.863 -57.716 2.33946 49.2025 -1.07127 25.0886 -0.191866 3.17361 2.42196 25.8709 -4.70899 0.0 0.0 0.0 29.1734 -32.3032 -3.14146 -0.42535 0.0172807 0.062987 -22.4723 20.295 3.45092 11.3082 -0.0 -0.0 -0.0 0.0 -0.0 -17.8769 -30.642 -6.46663 2.62244 0.116841 0.385399 15.867 25.4235 2.62541 0.503853 -0.0 -0.0 0.0 0.0 0.0 
3374.12 722.207 -1469.55 -90.8558 81.7189 93.9926 3.01837 -0.235816 -1.55903 3.01971 -0.136146 -1.57087 3.02303 0.11429 -1.57261 3.01961 -0.135478 -1.57093 -7.32926 12.1282 9.61106 -7.10407 15.6932 12.035 -0.0 0.0 -0.0 3.43211 -3.05841 6.42534 -43.6887 -12.5954 75.3018 1.01075 -26.5964 0.238903 21.4557 0.250575 -2.71334 0.397511 19.0969 10.143 -0.0 0.0 -0.0 4.30731 12.2269 -7.5838 10.4271 18.4211 -57.6303 2.28631 48.5504 -1.03123 25.177 -0.190075 3.18475 2.20949 23.9482 -4.26712 0.0 0.0 0.0 30.4363 -32.6924 -1.25774 -1.49293 0.0585865 0.221615 -24.3146 16.7641 3.69431 8.92359 -0.0 -0.0 -0.0 0.0 -0.0 -17.9459 -30.7353 -6.03517 0.475986 0.0198927 0.0703343 12.0998 21.7712 1.96104 1.41169 -0.0 -0.0 0.0 0.0 0.0 
3363.55 730.804 -1469.29 -77.4497 82.1226 81.121 2.95329 -0.264157 -1.54337 2.9546 -0.165426 -1.55704 2.95873 0.0849337 -1.5635 2.95535 -0.163027 -1.55729 -7.37563 12.1226 9.61983 -7.15084 15.688 12.0471 -0.0 0.0 -0.0 3.43736 -3.09821 6.43317 -43.3114 -12.6508 75.252 1.01152 -26.6138 0.239247 21.4533 0.250603 -2.71304 0.397057 19.0967 10.1401 -0.0 0.0 -0.0 4.28136 11.9164 -7.5522 9.7397 18.2383 -57.7476 2.26109 48.235 -1.01237 25.1767 -0.19008 3.18472 2.20242 23.8898 -4.24914 0.0 0.0 0.0 30.4481 -32.6622 -1.27477 -1.52444 0.0597604 0.226308 -24.3115 16.7594 3.6938 8.92324 -0.0 -0.0 -0.0 0.0 -0.0 -17.8921 -30.7477 -5.97407 0.490666 0.0205155 0.0725009 12.1005 21.7614 1.96097 1.4115 -0.0 -0.0 0.0 0.0 0.0 
3345.44 729.81 -1458.04 -74.9738 82.204 78.8404 2.91238 -0.261826 -1.50152 2.91362 -0.16576 -1.51513 2.91767 0.0790112 -1.52212 2.91447 -0.162343 -1.5155 -7.46325 12.0982 9.64086 -7.23891 15.6496 12.0715 -0.0 0.0 -0.0 3.67185 -3.13707 6.89621 -42.4759 -12.808 75.3327 1.01922 -26.7883 0.24271 21.4501 0.250642 -2.71263 0.397668 19.0906 10.1417 -0.0 0.0 -0.0 4.35463 11.7714 -7.71666 9.31321 18.1725 -58.0478 2.21934 47.7043 -0.981358 25.1747 -0.190122 3.18447 2.18937 23.7621 -4.22542 0.0 0.0 0.0 29.4067 -32.5926 -1.38043 -1.93826 0.0749403 0.288002 -24.279 16.7487 3.68876 8.92336 -0.0 -0.0 -0.0 0.0 -0.0 -17.7659 -30.7769 -5.92877 0.500559 0.0209352 0.073961 12.095 21.6771 1.9585 1.41174 -0.0 -0.0 0.0 0.0 0.0 
3320.92 731.416 -1457.25 -75.7323 81.3024 79.8135 2.90095 -0.388981 -1.53995 2.90222 -0.290214 -1.56157 2.90982 -0.0362275 -1.58789 2.90642 -0.28652 -1.56226 -7.49516 12.0669 9.50709 -7.27842 15.6957 11.9368 -0.0 0.0 -0.0 3.86258 -3.24906 7.26862 -41.3128 -12.8689 75.189 1.0269 -26.9618 0.246182 21.4476 0.250673 -2.71231 0.394482 19.0856 10.1204 -0.0 0.0 -0.0 4.39988 11.6421 -7.82097 8.94926 18.1056 -58.2611 2.15428 46.8551 -0.933561 25.1741 -0.190133 3.18439 2.17537 23.614 -4.2051 0.0 0.0 0.0 28.6362 -32.5395 -1.45518 -2.25319 0.0861935 0.335025 -24.2076 16.7367 3.67783 8.94576 -0.0 -0.0 -0.0 0.0 -0.0 -17.6356 -30.7925 -5.80414 0.494931 0.0206966 0.0731304 12.0836 21.586 1.95499 1.42609 -0.0 -0.0 0.0 0.0 0.0 
3302.67 738.811 -1457.33 -69.6699 80.6162 73.1779 2.92453 -0.482187 -1.57118 2.92583 -0.381245 -1.59867 2.93616 -0.120928 -1.63904 2.93261 -0.378233 -1.59939 -7.38162 12.0735 9.31607 -7.17265 15.8177 11.7389 -0.0 0.0 -0.0 4.01099 -3.43804 7.55316 -40.1179 -12.9524 74.984 1.03679 -27.1841 0.25068 21.4682 0.250422 -2.71493 0.393529 19.063 10.1064 -0.0 0.0 -0.0 4.40135 11.3204 -7.84703 8.03422 17.8485 -58.7041 2.10282 46.1637 -0.896223 25.1486 -0.190652 3.18117 2.16858 23.494 -4.21821 0.0 0.0 0.0 28.0453 -32.4975 -1.51826 -2.47368 0.093918 0.367981 -24.155 16.7284 3.66975 8.96198 -0.0 -0.0 -0.0 0.0 -0.0 -17.4255 -30.8027 -5.66636 0.320546 0.0133321 0.0473835 12.0724 21.5148 1.95192 1.43056 -0.0 -0.0 0.0 0.0 0.0 
3279.97 747.351 -1456.72 -64.9887 81.8853 69.4237 2.40282 -0.621362 -1.6117 2.40411 -0.517561 -1.64796 2.41896 -0.232235 -1.71162 2.41522 -0.499602 -1.65349 -4.57633 13.3333 7.6868 -4.36554 18.6772 10.0409 -0.0 0.0 -0.0 4.15351 -4.28856 7.78936 -36.5187 -14.159 73.0435 1.04075 -27.273 0.252491 21.7975 0.246296 -2.75679 0.185994 21.4672 9.73034 -0.0 0.0 -0.0 4.20624 9.74177 -7.55088 7.31826 16.7077 -62.2557 2.1147 46.325 -0.904809 23.5034 -0.221073 2.97322 1.94175 20.8877 -3.95927 0.0 0.0 0.0 26.4343 -32.6046 -1.3488 -9.73828 0.276833 1.46709 -23.4034 16.6987 3.5553 12.1501 -0.0 -0.0 -0.0 0.0 -0.0 -12.8433 -28.0584 -1.9191 -11.3069 -0.297943 -1.70684 14.4426 19.1962 2.26114 2.85327 -0.0 -0.0 0.0 0.0 0.0 
